<svg width="17" height="15" viewBox="0 0 17 15" fill="none" xmlns="http://www.w3.org/2000/svg">
<path d="M3.11603 6.26314L4.61603 3.66506C4.7541 3.42592 4.67216 3.12012 4.43301 2.98205C4.19387 2.84398 4.11193 2.53818 4.25 2.29904L4.5 1.86603C4.77614 1.38773 5.38773 1.22386 5.86603 1.5L9.33013 3.5C9.80842 3.77614 9.97229 4.38773 9.69615 4.86603L9.44615 5.29904C9.30808 5.53818 9.00229 5.62012 8.76314 5.48205C8.52399 5.34398 8.2182 5.42592 8.08013 5.66506C7.94206 5.90421 8.02399 6.21001 8.26314 6.34808L13.4593 9.34808C13.9376 9.62422 14.1015 10.2358 13.8253 10.7141C13.5492 11.1924 12.9376 11.3563 12.4593 11.0801L7.26314 8.08013C7.02399 7.94206 6.7182 8.02399 6.58013 8.26314C6.44206 8.50229 6.52399 8.80808 6.76314 8.94615C7.00229 9.08422 7.08422 9.39002 6.94615 9.62917L6.69615 10.0622C6.42001 10.5405 5.80842 10.7043 5.33013 10.4282L1.86603 8.4282C1.38773 8.15206 1.22386 7.54047 1.5 7.06218L1.75 6.62917C1.88807 6.39002 2.19387 6.30808 2.43301 6.44615C2.67216 6.58422 2.97795 6.50229 3.11603 6.26314Z" stroke="black"/>
</svg>
